<svg xmlns="http://www.w3.org/2000/svg" width="94.047" height="40" viewBox="0 0 94.047 40">
  <g id="NewLogo" transform="translate(-3665 -2743)">
    <path id="Union_181" data-name="Union 181" d="M31.5,2.36A2.3,2.3,0,0,1,33.894,0a2.253,2.253,0,0,1,2.335,2.371A2.367,2.367,0,1,1,31.5,2.36Zm.933.046A1.5,1.5,0,0,0,33.9,4.046c.977,0,1.4-.811,1.4-1.669A1.471,1.471,0,0,0,33.842.712C32.853.712,32.429,1.482,32.429,2.406ZM9.761,2.36A2.3,2.3,0,0,1,12.161,0,2.255,2.255,0,0,1,14.5,2.371,2.28,2.28,0,0,1,12.12,4.756,2.27,2.27,0,0,1,9.761,2.36Zm.935.046a1.5,1.5,0,0,0,1.469,1.64c.977,0,1.4-.811,1.4-1.669A1.471,1.471,0,0,0,12.109.712C11.12.712,10.7,1.482,10.7,2.406ZM.185,4.694A.184.184,0,0,1,0,4.51V4.4a.194.194,0,0,1,.033-.107L2.471.772H.434A.184.184,0,0,1,.249.587V.252A.184.184,0,0,1,.434.068H3.449a.184.184,0,0,1,.184.185v.11a.2.2,0,0,1-.031.1L1.223,3.99H3.38a.185.185,0,0,1,.185.185V4.51a.184.184,0,0,1-.185.185Zm24.066,0a.184.184,0,0,1-.184-.185V2.73H21.93V4.508a.184.184,0,0,1-.184.185h-.528a.185.185,0,0,1-.185-.185V.252a.184.184,0,0,1,.185-.185h.528a.184.184,0,0,1,.184.185V2.027h2.137V.252a.184.184,0,0,1,.184-.185h.526a.184.184,0,0,1,.184.185V4.508a.184.184,0,0,1-.184.185Z" transform="translate(3693.945 2778.244)"/>
    <path id="Path_4181" data-name="Path 4181" d="M151.028,32.046a5.07,5.07,0,0,1-2.059-.441L133.8,24.844a5.062,5.062,0,0,1-2.562-6.683L138,2.993A5.066,5.066,0,0,1,144.682.431L159.85,7.191a5.068,5.068,0,0,1,2.562,6.683l-6.761,15.168a5.074,5.074,0,0,1-4.623,3Zm-8.4-29.292a2.3,2.3,0,0,0-2.1,1.364l-6.759,15.168a2.3,2.3,0,0,0,1.164,3.038l15.168,6.761h0a2.3,2.3,0,0,0,3.036-1.164l6.761-15.168a2.3,2.3,0,0,0-1.164-3.038L143.56,2.954A2.282,2.282,0,0,0,142.626,2.754Z" transform="translate(3556.204 2743.008)" fill="#049849"/>
    <path id="Path_4182" data-name="Path 4182" d="M421.866,58.356H405.26a5.066,5.066,0,0,1-5.06-5.06V36.69a5.066,5.066,0,0,1,5.06-5.06h16.606a5.066,5.066,0,0,1,5.06,5.06V53.3A5.066,5.066,0,0,1,421.866,58.356ZM405.26,34.389a2.3,2.3,0,0,0-2.3,2.3V53.295a2.3,2.3,0,0,0,2.3,2.3h16.606a2.3,2.3,0,0,0,2.3-2.3V36.69a2.3,2.3,0,0,0-2.3-2.3H405.26Z" transform="translate(3332.12 2716.692)" fill="#f6b11b"/>
    <path id="Path_4183" data-name="Path 4183" d="M27.5,27.863l-2.052,4.6.93,5.753a2.3,2.3,0,0,1-1.9,2.638L8.077,43.507a2.3,2.3,0,0,1-2.638-1.9L2.792,25.211a2.3,2.3,0,0,1,1.9-2.638L21.09,19.924a2.325,2.325,0,0,1,.372-.03,2.3,2.3,0,0,1,2.266,1.934l.915,5.664,2.052-4.6-.242-1.5a5.059,5.059,0,0,0-5.8-4.187L4.255,19.849a5.066,5.066,0,0,0-4.189,5.8L2.716,42.045A5.064,5.064,0,0,0,7.7,46.3a5.2,5.2,0,0,0,.819-.066l16.393-2.649h0a5.066,5.066,0,0,0,4.189-5.8Z" transform="translate(3664.999 2728.749)" fill="#e22728"/>
    <path id="Path_4184" data-name="Path 4184" d="M309.545,48.03h-.032a2.3,2.3,0,0,0-2.3,2.3v1.029l1.773,13.028a2.3,2.3,0,0,1-1.97,2.589l-16.455,2.239a2.3,2.3,0,0,1-2.589-1.97l-.749-5.5-2.135,4.789.148,1.087A5.068,5.068,0,0,0,290.249,72a4.988,4.988,0,0,0,.686-.047l16.455-2.239a5.066,5.066,0,0,0,4.332-5.7Z" transform="translate(3427.867 2703.051)" fill="#226eb3"/>
    <path id="Path_4185" data-name="Path 4185" d="M275.16,26.818a2.3,2.3,0,0,1,1.97-2.589l16.455-2.239a2.441,2.441,0,0,1,.311-.022,2.3,2.3,0,0,1,1.615.668,5.049,5.049,0,0,1,2.535-1.262,5.07,5.07,0,0,0-4.836-2.12l-16.453,2.239a5.06,5.06,0,0,0-4.332,5.7l1.384,10.172,2.135-4.789Z" transform="translate(3438.441 2727.025)" fill="#226eb3"/>
  </g>
</svg>
